<?xml version="1.0" standalone="no"?>
<!DOCTYPE svg PUBLIC "-//W3C//DTD SVG 20010904//EN"
 "http://www.w3.org/TR/2001/REC-SVG-20010904/DTD/svg10.dtd">
<svg version="1.0" xmlns="http://www.w3.org/2000/svg"
 width="2048.000000pt" height="2048.000000pt" viewBox="0 0 2048.000000 2048.000000"
 preserveAspectRatio="xMidYMid meet">
<metadata>
Created by potrace 1.16, written by Peter Selinger 2001-2019
</metadata>
<style>.m{fill:#111111}@media (prefers-color-scheme:dark){.m{fill:#ffffff}}</style>
<g transform="translate(0.000000,2048.000000) scale(0.100000,-0.100000)"
class="m" stroke="none">
<path d="M9610 18534 c-19 -3 -60 -11 -91 -19 -31 -9 -110 -22 -175 -30 -313
-38 -523 -69 -684 -100 -41 -8 -114 -22 -162 -30 -47 -9 -104 -22 -126 -29
-21 -8 -84 -21 -138 -30 -54 -10 -139 -30 -189 -46 -49 -15 -144 -45 -210 -65
-66 -20 -145 -46 -175 -57 -30 -11 -84 -29 -120 -39 -90 -26 -253 -83 -325
-113 -33 -14 -68 -26 -78 -26 -10 0 -35 -11 -55 -25 -20 -14 -43 -25 -52 -25
-8 0 -46 -16 -84 -35 -39 -19 -76 -35 -84 -35 -7 0 -61 -26 -120 -59 -59 -32
-118 -62 -132 -66 -14 -4 -46 -20 -71 -36 -25 -16 -50 -29 -55 -29 -5 0 -22
-8 -39 -17 -16 -9 -75 -39 -130 -68 -220 -115 -281 -148 -300 -166 -12 -10
-36 -24 -55 -30 -19 -7 -61 -32 -92 -55 -32 -24 -79 -55 -105 -69 -26 -14 -66
-39 -88 -56 -22 -16 -58 -39 -80 -51 -22 -11 -54 -33 -70 -47 -17 -14 -80 -60
-140 -100 -61 -41 -142 -103 -181 -138 -39 -35 -76 -63 -82 -63 -6 0 -44 -28
-85 -62 -42 -35 -96 -79 -121 -100 -187 -147 -807 -747 -886 -856 -16 -23 -35
-42 -40 -42 -6 0 -30 -27 -54 -60 -25 -34 -59 -75 -77 -93 -32 -32 -130 -154
-204 -252 -22 -30 -74 -97 -115 -150 -41 -52 -86 -115 -100 -140 -14 -24 -46
-70 -71 -102 -25 -32 -51 -72 -58 -90 -7 -18 -20 -38 -28 -44 -8 -7 -24 -31
-35 -53 -11 -23 -30 -51 -41 -64 -12 -12 -33 -42 -47 -66 -87 -150 -118 -202
-139 -235 -13 -20 -36 -58 -51 -86 -15 -27 -46 -83 -69 -124 -24 -40 -49 -92
-57 -115 -8 -22 -21 -50 -28 -61 -32 -48 -94 -172 -101 -200 -3 -16 -17 -44
-31 -62 -21 -27 -114 -231 -114 -250 0 -6 -20 -52 -90 -208 -15 -34 -33 -85
-40 -115 -7 -30 -21 -71 -31 -92 -10 -20 -23 -58 -29 -85 -5 -26 -21 -73 -34
-103 -28 -67 -80 -231 -100 -320 -14 -61 -30 -114 -78 -250 -11 -30 -33 -122
-49 -205 -16 -82 -36 -170 -44 -195 -8 -24 -18 -76 -21 -115 -3 -38 -10 -83
-16 -100 -20 -59 -36 -153 -53 -305 -9 -85 -23 -186 -31 -224 -30 -140 -36
-343 -31 -1074 4 -675 5 -735 24 -842 27 -149 41 -244 53 -356 5 -50 16 -110
24 -132 8 -23 20 -78 26 -123 6 -44 22 -124 35 -177 13 -54 28 -131 35 -172
11 -70 42 -177 96 -332 13 -37 28 -98 35 -135 6 -37 22 -93 34 -123 13 -30 31
-82 40 -115 9 -33 23 -69 30 -80 6 -11 18 -45 25 -75 7 -30 21 -71 30 -90 10
-19 23 -55 30 -79 6 -24 34 -98 62 -165 27 -66 61 -148 73 -181 26 -66 83
-190 114 -245 10 -19 41 -81 67 -138 26 -56 54 -108 61 -114 7 -5 18 -29 24
-52 6 -22 19 -52 29 -66 28 -40 69 -111 92 -160 11 -25 30 -58 42 -75 12 -16
44 -70 71 -120 26 -49 91 -155 143 -235 52 -80 111 -170 130 -200 20 -30 42
-59 49 -63 7 -4 23 -27 34 -50 12 -23 47 -73 78 -112 31 -38 78 -99 104 -135
26 -36 65 -87 87 -115 22 -27 54 -70 71 -95 17 -25 52 -66 78 -91 25 -26 64
-70 86 -99 152 -198 742 -781 985 -974 131 -103 244 -187 270 -201 16 -8 34
-23 39 -34 10 -18 74 -66 259 -193 18 -13 51 -37 73 -55 22 -17 49 -35 62 -39
12 -3 38 -18 57 -33 70 -52 126 -88 148 -95 12 -4 36 -19 54 -34 36 -31 87
-61 212 -127 49 -25 101 -54 115 -64 14 -10 51 -31 81 -46 30 -15 62 -33 70
-40 8 -7 35 -19 60 -25 24 -7 57 -22 72 -35 15 -13 44 -29 64 -35 20 -7 61
-25 91 -41 30 -16 61 -29 67 -29 7 0 21 -9 30 -19 10 -11 43 -29 74 -41 31
-12 77 -32 102 -44 25 -13 63 -26 84 -29 21 -4 49 -15 61 -27 12 -11 51 -29
86 -39 85 -26 219 -76 266 -99 21 -11 58 -23 83 -26 25 -4 70 -17 100 -30 78
-34 235 -83 319 -101 39 -8 89 -24 111 -35 22 -11 71 -27 110 -35 38 -8 95
-23 127 -34 32 -10 90 -22 128 -26 39 -4 106 -15 150 -25 113 -26 171 -38 240
-50 33 -6 96 -18 140 -26 44 -8 159 -21 255 -29 96 -8 229 -27 296 -41 121
-25 121 -25 770 -21 618 3 653 4 744 24 86 20 143 27 425 53 50 5 106 14 125
20 19 6 82 17 141 25 58 8 118 19 134 25 28 11 94 24 280 55 44 7 96 20 115
28 19 8 63 20 98 27 34 6 84 20 110 31 26 11 72 25 102 30 62 12 249 69 325
101 28 11 75 26 105 33 31 7 69 19 85 27 17 9 59 25 95 36 36 11 92 32 125 46
33 14 70 26 81 26 12 0 37 13 57 29 20 15 55 31 78 35 23 4 85 31 138 60 53
29 114 59 136 66 22 7 65 26 96 42 31 15 61 28 66 28 5 0 31 14 59 31 27 18
63 36 79 42 17 6 46 20 65 32 19 12 96 55 170 96 74 40 151 85 170 101 19 15
39 28 44 28 11 0 90 49 237 146 53 35 101 64 105 64 5 0 30 17 56 38 53 43
169 124 237 166 25 15 67 48 93 72 26 24 51 44 57 44 5 0 41 29 80 65 39 36
75 65 81 65 5 0 42 28 81 62 39 35 100 86 134 113 155 124 620 573 698 675 23
30 62 75 87 100 67 68 212 239 307 364 33 45 79 104 102 131 22 28 57 74 78
104 21 30 52 70 69 90 17 20 41 54 52 76 12 22 39 63 61 90 22 28 51 70 64 95
13 25 34 61 48 81 24 37 52 82 79 129 8 14 27 42 41 61 14 19 32 48 38 66 7
18 20 38 28 45 8 6 25 32 38 58 62 123 145 273 159 289 9 10 25 43 36 75 10
31 28 69 38 84 27 39 78 151 91 197 6 22 18 50 27 63 31 45 93 170 104 213 7
24 21 61 32 83 11 21 30 68 43 105 13 36 42 118 65 181 23 63 49 144 59 180
10 36 25 79 33 95 28 56 88 249 97 316 5 37 17 82 27 100 10 19 28 79 41 134
77 334 112 503 124 600 6 44 19 132 29 195 33 194 52 340 60 455 6 78 14 124
29 157 21 47 22 53 19 635 -3 569 -4 590 -25 658 -19 64 -27 121 -53 405 -4
52 -13 111 -19 131 -6 20 -20 99 -31 175 -11 76 -27 175 -35 219 -9 44 -24
127 -35 185 -11 58 -31 148 -45 200 -14 52 -25 102 -25 110 0 9 -9 34 -21 55
-11 22 -31 92 -44 155 -13 63 -33 135 -44 160 -11 25 -21 56 -21 69 0 13 -13
47 -29 75 -16 28 -32 74 -36 101 -4 28 -13 65 -21 84 -8 19 -21 61 -30 95 -8
34 -25 77 -36 96 -11 19 -28 58 -38 85 -50 142 -136 342 -159 372 -11 13 -29
48 -40 76 -35 92 -72 171 -96 203 -13 17 -28 50 -35 73 -12 47 -73 165 -101
196 -10 12 -47 78 -83 147 -35 69 -79 147 -97 173 -19 26 -45 66 -59 89 -53
91 -66 110 -91 140 -14 17 -34 47 -44 66 -23 44 -51 85 -92 133 -18 20 -33 43
-33 50 0 15 -35 66 -90 131 -20 22 -49 61 -64 86 -16 25 -39 56 -52 70 -12 14
-40 49 -61 77 -36 49 -98 129 -211 266 -26 32 -78 93 -117 136 -38 42 -91 102
-117 132 -40 46 -94 100 -323 326 -16 16 -43 46 -58 67 -16 20 -41 42 -55 49
-15 6 -61 42 -102 80 -41 38 -91 83 -110 101 -67 61 -155 132 -193 155 -20 12
-43 30 -50 40 -19 26 -153 139 -185 155 -16 8 -35 22 -43 32 -8 9 -57 45 -109
80 -52 35 -113 77 -135 93 -22 17 -60 42 -85 57 -25 16 -70 47 -100 70 -30 23
-74 51 -96 62 -23 12 -54 32 -70 45 -16 13 -85 54 -154 92 -69 37 -139 79
-157 92 -18 13 -76 44 -130 69 -54 25 -114 54 -133 65 -30 17 -119 60 -250
123 -19 9 -60 32 -90 51 -30 19 -80 42 -110 50 -30 9 -62 23 -70 30 -33 28
-502 205 -625 235 -22 6 -67 21 -100 35 -33 13 -91 31 -128 40 -37 8 -81 22
-98 30 -105 55 -854 221 -1099 245 -69 6 -152 18 -185 25 -33 8 -117 19 -188
25 -70 7 -153 19 -185 28 -48 13 -147 16 -662 17 -333 1 -621 1 -640 -1z
m1115 -582 c88 -6 192 -15 230 -21 39 -6 167 -20 286 -31 121 -11 232 -26 251
-34 19 -9 74 -20 121 -26 47 -6 105 -17 129 -26 53 -19 227 -54 271 -54 18 0
52 -10 77 -21 25 -12 80 -25 123 -29 53 -6 92 -17 120 -33 23 -13 76 -32 117
-42 76 -18 240 -66 295 -86 17 -6 57 -22 90 -34 33 -13 98 -38 145 -54 47 -17
101 -40 120 -50 19 -10 62 -26 95 -36 33 -9 67 -23 75 -30 8 -7 37 -20 64 -29
27 -9 60 -25 73 -36 13 -10 50 -26 81 -35 31 -9 66 -25 77 -35 11 -11 66 -40
123 -65 56 -25 119 -55 140 -68 20 -13 62 -35 92 -49 64 -29 248 -134 271
-154 8 -8 35 -25 60 -37 101 -54 157 -89 204 -127 28 -22 65 -47 84 -56 19 -8
80 -49 135 -90 56 -41 119 -86 140 -101 22 -16 67 -51 101 -79 34 -28 72 -57
85 -64 63 -34 474 -405 714 -646 261 -260 386 -395 495 -534 28 -36 80 -101
114 -145 35 -44 94 -120 130 -170 37 -49 82 -110 99 -134 18 -24 52 -67 75
-95 24 -28 55 -69 69 -91 15 -22 48 -71 73 -108 64 -94 118 -184 143 -237 11
-25 41 -74 66 -110 25 -36 54 -86 63 -111 10 -26 30 -64 44 -84 14 -21 25 -47
25 -59 0 -12 9 -40 21 -61 49 -95 224 -476 249 -545 57 -153 80 -211 99 -248
11 -21 27 -65 35 -99 9 -33 26 -84 40 -114 13 -30 27 -70 31 -89 4 -19 18 -57
30 -85 13 -27 26 -72 30 -100 3 -27 12 -68 20 -90 7 -22 23 -76 35 -120 12
-44 32 -116 45 -160 13 -44 29 -114 35 -155 6 -41 17 -95 25 -120 8 -25 25
-112 39 -195 14 -82 32 -170 41 -195 9 -25 21 -99 25 -165 5 -66 12 -138 15
-160 27 -180 35 -252 41 -405 9 -220 5 -788 -7 -1065 -5 -128 -16 -253 -28
-320 -11 -60 -21 -142 -21 -182 0 -49 -8 -98 -25 -150 -14 -43 -25 -92 -25
-108 0 -17 -5 -46 -10 -65 -6 -19 -15 -70 -20 -113 -5 -43 -18 -108 -29 -145
-11 -37 -26 -98 -34 -137 -14 -71 -36 -151 -87 -325 -16 -52 -34 -124 -40
-160 -7 -36 -18 -81 -27 -100 -33 -77 -103 -274 -103 -290 0 -9 -9 -34 -21
-55 -11 -22 -31 -69 -44 -105 -12 -36 -44 -114 -70 -175 -25 -60 -53 -130 -62
-155 -8 -25 -24 -57 -34 -72 -11 -15 -26 -46 -34 -69 -8 -23 -23 -56 -33 -73
-11 -17 -25 -47 -32 -66 -8 -19 -23 -51 -35 -70 -68 -111 -85 -144 -96 -182
-6 -23 -23 -60 -39 -83 -15 -22 -31 -51 -35 -64 -4 -13 -21 -43 -39 -66 -17
-24 -42 -62 -56 -85 -43 -73 -108 -174 -130 -202 -11 -15 -27 -42 -35 -60 -7
-18 -32 -58 -55 -88 -23 -29 -53 -74 -67 -100 -15 -25 -35 -54 -45 -66 -10
-11 -39 -50 -65 -86 -43 -58 -141 -187 -228 -299 -69 -88 -156 -187 -258 -292
-60 -62 -119 -128 -132 -147 -13 -19 -42 -53 -66 -75 -24 -22 -70 -67 -103
-101 -34 -33 -103 -97 -153 -143 -51 -45 -125 -113 -163 -151 -39 -39 -88 -82
-108 -97 -40 -30 -141 -118 -212 -186 -25 -24 -67 -56 -95 -72 -27 -16 -77
-52 -110 -80 -33 -28 -94 -74 -135 -100 -41 -27 -91 -63 -111 -80 -21 -16 -59
-43 -85 -59 -27 -17 -92 -57 -144 -91 -52 -34 -126 -79 -165 -101 -81 -47
-165 -98 -215 -130 -19 -13 -54 -30 -78 -38 -24 -9 -55 -24 -70 -35 -15 -10
-65 -37 -112 -60 -47 -23 -137 -68 -200 -100 -63 -32 -133 -64 -155 -71 -22
-7 -64 -26 -94 -41 -30 -16 -61 -29 -70 -29 -9 0 -48 -15 -87 -34 -39 -18 -86
-37 -105 -41 -19 -4 -45 -13 -59 -21 -14 -8 -56 -26 -95 -40 -189 -71 -269
-97 -370 -123 -60 -15 -123 -34 -140 -43 -16 -8 -52 -19 -80 -23 -27 -4 -77
-18 -110 -31 -33 -14 -94 -29 -135 -34 -41 -5 -125 -21 -186 -35 -60 -13 -148
-31 -195 -40 -47 -8 -103 -22 -125 -31 -21 -10 -79 -21 -129 -25 -147 -11
-380 -38 -525 -59 -204 -31 -349 -40 -635 -40 -322 1 -526 12 -675 39 -118 21
-335 46 -520 61 -58 4 -123 15 -145 24 -43 17 -324 78 -465 101 -47 8 -113 26
-147 40 -35 14 -79 25 -98 25 -20 0 -61 11 -93 24 -31 13 -90 31 -131 40 -40
9 -90 24 -110 33 -20 8 -65 23 -101 33 -114 32 -329 114 -540 205 -47 21 -112
49 -145 62 -128 53 -398 186 -475 233 -25 15 -56 31 -70 35 -14 4 -39 18 -56
30 -16 13 -48 31 -69 40 -22 9 -49 24 -60 34 -11 10 -60 40 -110 67 -49 26
-115 67 -145 90 -30 23 -79 54 -109 69 -52 26 -132 81 -281 193 -36 26 -81 58
-102 70 -20 12 -38 29 -42 37 -3 8 -22 23 -43 34 -21 11 -67 45 -103 76 -35
30 -69 55 -75 55 -6 0 -42 30 -81 66 -38 36 -116 109 -173 162 -57 54 -120
114 -140 136 -20 21 -47 44 -61 51 -27 15 -73 60 -197 194 -43 46 -107 114
-143 151 -90 92 -164 176 -275 310 -154 186 -159 192 -210 265 -27 39 -73 98
-102 133 -29 35 -60 77 -69 94 -9 18 -38 61 -64 97 -26 36 -55 82 -65 101 -10
19 -35 55 -56 80 -40 48 -82 114 -125 195 -14 28 -50 86 -79 130 -30 44 -58
98 -64 120 -6 22 -29 69 -51 105 -65 107 -127 233 -145 292 -9 31 -22 61 -29
68 -8 6 -24 36 -37 68 -12 31 -26 62 -31 69 -9 12 -45 100 -94 233 -13 36 -31
77 -39 91 -8 15 -37 90 -64 167 -28 77 -59 158 -69 179 -11 21 -25 65 -31 98
-7 33 -23 94 -36 135 -73 235 -158 577 -190 770 -7 41 -20 102 -29 135 -9 32
-16 77 -16 100 0 22 -7 62 -15 89 -8 27 -15 77 -15 110 0 34 -5 93 -11 131
-64 439 -75 1128 -24 1585 8 69 19 186 25 260 6 74 15 153 20 175 5 22 14 81
20 130 6 50 19 122 30 160 10 39 21 93 25 120 3 28 19 100 35 160 15 61 31
130 35 155 9 62 60 255 100 375 18 55 38 129 45 165 7 35 21 82 31 103 11 21
28 63 38 95 27 83 75 211 94 252 24 53 66 158 91 225 12 33 48 112 78 175 31
63 59 126 63 140 4 14 20 50 35 80 15 30 32 71 38 90 18 60 56 144 89 195 17
28 34 61 38 75 4 14 20 43 35 65 15 22 48 74 73 115 52 85 137 218 213 335 29
44 61 85 72 92 11 7 35 34 53 60 18 26 59 79 91 116 32 38 58 72 58 77 0 4 24
39 53 76 28 38 61 83 71 99 11 17 47 61 80 98 117 130 191 214 226 256 32 38
162 177 280 297 86 88 337 320 449 414 62 52 146 125 187 163 42 37 79 67 84
67 5 0 35 22 68 49 32 27 72 55 88 64 17 9 37 23 45 33 7 9 53 43 101 75 47
32 89 63 93 68 3 6 37 27 75 47 39 20 89 53 112 73 24 20 59 44 78 54 19 10
60 33 90 51 137 83 201 119 285 162 50 25 104 56 120 68 17 12 50 30 75 40 25
10 50 22 55 26 23 19 212 108 244 115 19 4 54 20 79 36 25 16 53 29 61 29 9 0
30 8 46 18 17 11 55 27 85 37 30 10 64 24 75 31 12 8 66 29 120 48 55 19 138
49 185 66 47 18 121 42 165 54 44 13 113 35 153 50 40 14 81 26 90 26 10 0 37
11 62 24 27 14 73 26 115 31 38 4 97 15 130 26 33 10 122 32 197 48 75 16 161
37 189 45 29 9 69 16 89 16 20 0 72 9 116 21 43 12 115 25 159 29 44 5 148 16
230 24 83 9 251 23 375 32 124 8 227 18 230 20 7 8 612 -3 785 -14z"/>
<path d="M10095 17264 c-33 -7 -145 -16 -250 -19 -104 -3 -253 -15 -330 -25
-77 -11 -183 -24 -235 -29 -52 -6 -169 -24 -260 -41 -91 -16 -196 -35 -235
-41 -38 -6 -106 -21 -150 -35 -44 -13 -111 -30 -150 -38 -38 -7 -106 -25 -150
-39 -164 -53 -280 -87 -295 -87 -8 0 -40 -12 -70 -26 -30 -14 -77 -33 -104
-41 -27 -8 -59 -21 -70 -28 -12 -8 -57 -24 -101 -36 -44 -12 -98 -30 -119 -41
-21 -11 -57 -26 -78 -34 -22 -7 -51 -22 -66 -33 -15 -10 -74 -37 -132 -61 -58
-23 -148 -66 -200 -95 -52 -29 -108 -55 -124 -59 -16 -4 -48 -20 -70 -35 -67
-45 -159 -98 -186 -106 -32 -9 -114 -60 -164 -102 -21 -17 -51 -35 -67 -38
-15 -4 -57 -28 -93 -55 -36 -27 -76 -55 -88 -61 -13 -7 -37 -24 -55 -38 -17
-14 -84 -62 -149 -106 -65 -44 -148 -107 -185 -140 -37 -33 -89 -76 -116 -95
-141 -102 -265 -214 -570 -518 -266 -265 -294 -301 -399 -512 -76 -152 -105
-252 -98 -335 10 -114 38 -240 65 -295 15 -30 30 -66 34 -80 4 -14 31 -52 60
-85 28 -33 58 -71 65 -85 53 -100 232 -243 375 -299 131 -51 164 -60 261 -72
93 -12 111 -11 225 10 214 38 297 63 361 109 28 20 162 147 297 281 135 134
279 270 319 303 39 34 72 64 72 69 0 5 19 18 43 30 39 20 77 48 137 103 14 12
62 49 108 82 351 249 476 326 818 499 110 56 218 105 240 109 21 5 98 36 169
71 97 48 145 66 190 70 33 4 114 20 180 37 168 42 268 43 352 4 84 -38 141
-101 181 -198 18 -42 32 -89 32 -103 0 -15 -16 -65 -36 -111 -44 -101 -90
-147 -174 -171 -30 -8 -68 -22 -83 -30 -16 -8 -80 -28 -143 -44 -63 -16 -153
-45 -202 -64 -48 -20 -107 -42 -132 -50 -64 -21 -536 -260 -570 -290 -8 -7
-51 -34 -95 -60 -89 -53 -145 -92 -211 -147 -25 -21 -51 -38 -57 -38 -7 0 -46
-29 -89 -64 -42 -36 -91 -72 -108 -81 -18 -9 -51 -35 -74 -58 -23 -23 -60 -55
-81 -71 -54 -40 -340 -331 -485 -493 -80 -89 -319 -421 -382 -530 -16 -27 -45
-76 -67 -109 -21 -34 -45 -75 -53 -90 -96 -186 -128 -251 -128 -259 0 -10 -44
-104 -97 -210 -14 -27 -33 -77 -43 -110 -10 -33 -32 -98 -50 -145 -47 -127
-59 -167 -76 -255 -8 -44 -25 -107 -38 -140 -13 -33 -26 -89 -29 -125 -4 -36
-16 -94 -27 -130 -22 -71 -32 -162 -55 -470 -22 -297 -19 -500 14 -885 12
-134 73 -444 100 -505 11 -26 22 -80 26 -130 7 -85 6 -85 -28 -140 -60 -93
-95 -131 -155 -167 -57 -35 -57 -35 -167 -31 -104 3 -113 5 -161 36 -87 55
-151 158 -174 278 -5 27 -16 78 -25 114 -56 223 -75 315 -80 390 -3 47 -11
141 -18 210 -16 168 -15 831 2 1025 16 190 26 262 46 350 9 39 21 99 27 135 6
36 21 103 34 150 13 47 35 137 48 200 26 119 51 201 131 425 42 116 47 142 52
240 5 105 4 113 -21 163 -14 28 -32 78 -40 109 -28 121 -118 267 -235 384
-110 110 -164 150 -274 205 -70 36 -106 47 -170 55 -45 6 -113 17 -152 25
-168 37 -374 -11 -565 -134 -67 -43 -156 -127 -177 -167 -9 -16 -27 -43 -40
-60 -31 -37 -89 -138 -99 -168 -3 -12 -16 -38 -28 -57 -22 -36 -61 -140 -101
-270 -13 -41 -31 -92 -39 -112 -9 -21 -21 -72 -27 -115 -7 -43 -22 -98 -34
-123 -13 -25 -30 -83 -39 -130 -10 -47 -23 -105 -31 -130 -7 -25 -21 -106 -30
-181 -9 -74 -25 -164 -36 -199 -11 -36 -24 -116 -29 -180 -5 -63 -16 -146 -24
-185 -9 -39 -16 -121 -16 -185 0 -63 -5 -133 -11 -155 -25 -98 -28 -596 -4
-825 7 -74 17 -180 20 -235 4 -55 12 -131 20 -170 7 -38 16 -107 20 -153 3
-46 13 -109 22 -140 23 -86 31 -131 42 -239 6 -54 17 -118 26 -143 8 -25 21
-82 29 -128 8 -46 26 -105 39 -131 16 -30 29 -77 35 -131 7 -51 25 -122 46
-177 19 -51 51 -143 71 -204 19 -62 42 -123 50 -136 9 -13 20 -48 26 -78 5
-30 36 -111 68 -179 33 -68 62 -134 66 -147 4 -13 36 -82 70 -154 73 -149 135
-288 135 -301 0 -5 16 -31 35 -58 19 -27 35 -57 35 -66 0 -9 13 -35 29 -57 16
-23 42 -65 57 -94 15 -30 41 -74 58 -99 17 -25 42 -66 56 -92 24 -44 97 -156
157 -242 16 -22 44 -58 64 -80 20 -23 41 -56 47 -74 6 -18 38 -65 71 -105 145
-174 170 -206 184 -233 9 -16 50 -65 92 -109 43 -44 90 -98 107 -120 51 -70
437 -453 619 -617 143 -127 320 -278 328 -278 4 0 45 -29 90 -65 46 -36 86
-65 91 -65 4 0 37 -24 73 -52 88 -72 162 -125 200 -144 18 -10 65 -39 104 -66
40 -26 85 -53 100 -59 15 -6 42 -21 59 -34 55 -42 255 -149 514 -276 91 -44
197 -96 235 -115 39 -19 77 -34 86 -34 9 0 38 -12 65 -26 83 -45 196 -90 269
-108 39 -9 120 -39 180 -65 61 -27 146 -57 190 -66 44 -10 107 -28 140 -40 33
-12 90 -27 128 -34 37 -6 80 -16 95 -22 15 -6 90 -29 167 -51 140 -40 140 -40
300 -35 108 3 172 10 195 19 19 8 52 18 72 22 21 4 50 17 65 30 15 12 48 30
73 39 52 19 215 161 257 221 24 37 65 125 114 250 11 27 28 65 38 85 10 20 22
61 25 91 4 30 12 77 18 104 9 39 7 69 -6 145 -9 53 -24 116 -32 141 -9 25 -24
71 -35 103 -37 114 -239 388 -331 450 -64 44 -200 107 -272 126 -71 19 -147
43 -261 82 -33 11 -98 29 -145 39 -47 10 -105 28 -130 39 -25 11 -53 21 -62
21 -20 0 -248 84 -298 109 -19 10 -60 26 -90 36 -30 10 -67 26 -82 36 -14 11
-30 19 -35 19 -13 0 -346 170 -364 186 -8 7 -31 19 -50 25 -19 7 -50 24 -69
38 -65 48 -98 69 -142 89 -42 19 -143 89 -225 157 -23 19 -46 35 -52 35 -6 0
-41 26 -79 59 -37 32 -87 68 -110 80 -23 12 -49 32 -57 44 -8 13 -36 39 -63
58 -104 74 -300 263 -393 379 -100 124 -129 184 -136 282 -5 83 -5 83 37 163
53 102 61 110 142 151 62 31 75 34 157 34 85 0 94 -2 155 -35 44 -25 73 -49
93 -79 40 -60 357 -356 488 -456 61 -46 138 -107 171 -135 34 -29 81 -62 105
-73 24 -12 67 -40 94 -61 28 -22 88 -61 135 -87 47 -26 128 -73 180 -104 52
-31 113 -63 135 -70 22 -7 92 -39 155 -70 63 -32 131 -61 150 -65 19 -4 62
-20 95 -36 33 -16 65 -29 71 -29 6 0 37 -11 68 -25 31 -14 89 -32 128 -41 40
-9 101 -27 136 -40 34 -13 75 -24 91 -24 16 0 73 -13 127 -29 55 -16 140 -35
189 -41 50 -6 133 -19 185 -30 175 -35 618 -50 926 -30 199 13 535 63 634 95
41 13 98 27 125 30 28 3 100 21 160 40 61 19 148 46 195 60 47 14 110 39 141
55 32 16 77 34 101 40 52 14 203 84 236 110 12 10 37 22 55 26 77 16 529 279
617 359 14 12 57 43 95 69 167 113 588 495 626 569 20 38 27 42 138 87 71 29
162 28 233 -1 29 -11 63 -25 74 -29 26 -10 74 -75 114 -155 33 -66 38 -120 20
-215 -8 -42 -24 -71 -72 -134 -63 -83 -145 -179 -173 -206 -9 -8 -44 -42 -78
-74 -81 -78 -137 -127 -236 -206 -45 -36 -109 -89 -144 -118 -34 -30 -73 -60
-87 -67 -15 -8 -65 -42 -113 -77 -101 -73 -158 -113 -242 -166 -96 -62 -122
-77 -275 -158 -80 -42 -165 -89 -190 -105 -25 -15 -65 -33 -89 -39 -24 -6 -55
-18 -67 -27 -21 -13 -72 -35 -242 -99 -34 -13 -82 -34 -105 -46 -23 -11 -69
-27 -102 -34 -33 -6 -87 -24 -120 -38 -33 -14 -73 -26 -88 -26 -15 0 -78 -16
-140 -35 -62 -20 -152 -49 -202 -64 -49 -16 -103 -32 -120 -35 -84 -19 -272
-143 -301 -198 -8 -15 -42 -56 -76 -90 -96 -98 -144 -185 -213 -390 -46 -136
-54 -239 -26 -347 22 -84 26 -95 84 -246 52 -136 73 -173 151 -259 65 -73 185
-166 213 -166 7 0 28 -13 46 -30 19 -16 74 -44 123 -62 87 -31 94 -32 254 -32
153 0 171 2 248 27 46 15 90 27 98 27 9 0 46 14 84 30 38 17 83 30 102 30 18
0 65 12 103 26 39 13 104 33 145 44 86 22 224 69 291 99 25 11 70 26 100 32
30 6 74 22 99 34 25 12 95 41 155 64 61 23 164 69 230 101 66 32 147 69 180
83 33 14 105 51 160 83 55 32 129 73 165 91 36 18 94 51 130 73 36 21 85 50
110 64 25 14 68 41 95 60 28 19 71 46 96 60 42 22 96 58 218 144 25 17 69 48
98 66 28 19 77 57 107 85 31 28 61 51 67 51 5 0 41 28 79 63 37 34 107 96 155
137 102 89 703 682 727 718 9 14 44 55 77 91 123 134 381 459 381 480 0 3 18
31 41 61 22 30 59 85 82 122 23 38 56 90 72 117 17 26 39 62 50 80 11 19 37
59 57 90 21 31 38 59 38 63 0 4 16 33 36 64 33 51 72 127 183 354 22 47 41 90
41 95 0 6 25 60 56 120 61 121 102 213 141 320 14 39 29 75 33 80 4 6 20 51
35 100 15 50 31 95 36 101 12 15 99 279 99 301 0 10 12 43 26 73 14 31 29 88
35 135 5 44 18 103 28 130 34 93 78 309 111 545 6 47 20 117 30 157 11 41 21
129 25 205 4 73 14 167 22 208 36 170 35 865 -2 1105 -8 50 -16 153 -20 230
-4 103 -11 152 -24 185 -11 25 -27 108 -36 185 -22 180 -67 396 -105 507 -18
51 -30 107 -30 137 0 30 -10 76 -25 113 -36 93 -85 246 -97 303 -5 28 -25 82
-44 120 -19 39 -34 77 -34 85 0 25 -181 292 -233 342 -26 26 -65 57 -86 68
-22 11 -42 24 -46 30 -12 20 -180 90 -237 100 -33 5 -76 18 -95 30 -45 26
-116 26 -191 0 -31 -12 -103 -27 -159 -35 -73 -10 -114 -21 -146 -39 -24 -14
-51 -26 -60 -26 -9 0 -31 -13 -49 -29 -18 -15 -48 -36 -67 -46 -58 -29 -225
-207 -261 -278 -17 -34 -38 -69 -46 -78 -8 -9 -25 -47 -38 -85 -13 -38 -31
-89 -40 -114 -8 -25 -25 -77 -37 -117 -21 -68 -21 -74 -6 -125 9 -29 21 -86
27 -126 6 -41 17 -86 24 -100 19 -37 103 -298 112 -347 4 -22 16 -65 26 -95
10 -30 27 -95 38 -145 10 -49 28 -133 39 -185 61 -292 106 -723 105 -1020 0
-166 -19 -467 -35 -555 -6 -33 -14 -94 -19 -135 -40 -349 -122 -661 -193 -739
-75 -80 -303 -125 -370 -73 -7 5 -33 17 -59 27 -46 17 -97 67 -127 122 -33 64
-27 269 14 408 76 263 126 803 105 1130 -20 314 -71 688 -105 769 -9 21 -21
77 -26 124 -7 53 -22 113 -39 152 -15 36 -30 85 -34 108 -4 24 -15 60 -25 80
-10 21 -24 61 -30 90 -6 29 -22 74 -36 100 -14 26 -25 54 -25 62 0 9 -15 47
-33 85 -19 39 -40 88 -47 110 -7 22 -16 45 -20 50 -4 6 -45 82 -90 170 -45 88
-99 185 -120 215 -21 30 -56 87 -77 125 -57 100 -84 142 -119 183 -17 21 -37
48 -44 61 -7 13 -40 57 -74 98 -33 41 -72 91 -86 112 -14 20 -54 67 -90 102
-36 36 -98 103 -139 150 -40 46 -91 98 -113 114 -22 17 -70 59 -107 95 -105
103 -221 204 -245 213 -11 4 -41 28 -66 52 -25 24 -66 56 -92 72 -25 15 -61
40 -80 55 -43 34 -180 119 -293 181 -49 27 -97 55 -106 63 -8 8 -41 23 -73 34
-31 10 -69 28 -84 38 -42 29 -142 80 -192 97 -24 9 -60 25 -78 36 -19 10 -54
24 -79 30 -25 5 -58 18 -72 28 -26 18 -163 59 -291 87 -36 7 -122 42 -193 76
-125 61 -128 63 -151 112 -67 145 -70 211 -15 320 36 71 50 87 137 141 41 25
69 35 122 40 74 7 81 7 240 -30 58 -13 143 -31 190 -40 47 -10 101 -25 120
-35 19 -9 53 -23 75 -30 22 -7 85 -34 140 -60 55 -26 132 -57 170 -70 79 -26
175 -72 220 -105 17 -13 46 -26 65 -30 19 -4 71 -31 115 -60 44 -29 89 -55
100 -59 22 -8 194 -115 310 -193 87 -59 204 -147 303 -230 35 -29 67 -53 72
-53 14 0 279 -248 497 -464 100 -99 198 -189 217 -201 20 -12 44 -29 55 -39
10 -10 45 -24 77 -33 32 -8 71 -21 86 -29 32 -16 143 -41 241 -54 107 -13 272
12 372 56 186 83 205 95 320 209 61 61 126 133 145 160 18 28 48 67 66 87 29
33 54 90 54 126 0 8 14 46 32 85 29 68 31 79 31 197 0 108 -2 131 -21 166 -11
23 -27 68 -35 100 -9 38 -31 85 -63 132 -27 40 -60 93 -74 116 -14 23 -36 56
-48 72 -38 47 -484 494 -548 549 -32 28 -81 71 -109 97 -47 45 -246 213 -316
268 -100 78 -548 380 -564 380 -4 0 -24 14 -45 30 -22 17 -76 50 -122 73 -46
24 -94 50 -108 58 -105 65 -150 88 -185 98 -22 6 -56 22 -74 36 -19 13 -50 30
-68 36 -19 6 -73 34 -121 62 -47 27 -106 54 -131 59 -25 4 -57 17 -71 28 -39
31 -148 79 -230 102 -41 11 -88 28 -105 38 -16 9 -52 23 -79 29 -27 7 -69 22
-95 35 -25 13 -62 27 -81 30 -19 4 -66 18 -105 31 -162 55 -500 146 -630 170
-49 9 -115 22 -145 30 -60 15 -367 62 -495 76 -264 27 -414 39 -520 39 -74 0
-141 6 -175 15 -66 18 -173 17 -255 -1z m610 -613 c138 -7 209 -15 260 -30 39
-11 133 -27 210 -35 77 -9 161 -22 187 -30 26 -8 99 -22 163 -31 64 -9 144
-25 178 -36 34 -10 94 -26 134 -34 39 -7 89 -23 111 -34 22 -11 74 -27 115
-36 42 -9 96 -25 121 -36 25 -11 69 -23 97 -26 33 -4 61 -15 80 -30 15 -13 60
-33 100 -44 39 -11 83 -26 98 -33 14 -7 49 -19 76 -25 28 -7 64 -21 81 -32 17
-10 50 -26 73 -34 23 -8 55 -23 70 -34 15 -11 39 -23 54 -26 36 -10 313 -146
361 -178 20 -14 54 -31 74 -38 20 -7 51 -23 68 -36 17 -12 35 -23 41 -23 6 0
30 -16 54 -34 24 -19 54 -38 67 -41 13 -3 55 -29 95 -58 39 -29 86 -61 104
-72 18 -11 78 -51 133 -90 98 -68 129 -90 260 -185 35 -25 91 -71 126 -104 34
-32 73 -66 86 -75 13 -9 48 -39 78 -68 30 -28 71 -64 90 -80 76 -61 494 -490
505 -518 7 -16 18 -60 25 -96 12 -60 11 -71 -8 -127 -26 -78 -76 -156 -116
-182 -17 -11 -44 -28 -59 -39 -16 -10 -54 -24 -85 -31 -49 -10 -67 -9 -122 5
-88 23 -174 78 -221 141 -20 28 -56 66 -78 83 -22 18 -48 45 -57 59 -8 15 -43
50 -77 77 -33 28 -119 107 -191 176 -72 70 -141 129 -154 133 -12 4 -27 16
-32 26 -12 23 -222 185 -367 283 -58 40 -129 88 -157 107 -29 20 -67 42 -86
49 -19 8 -54 28 -77 46 -41 31 -85 55 -173 95 -25 11 -59 30 -76 43 -63 44
-124 75 -269 133 -33 14 -96 43 -140 66 -114 58 -422 180 -529 208 -38 10 -90
28 -117 39 -26 12 -63 21 -81 21 -18 0 -66 9 -106 20 -39 11 -100 20 -134 20
-35 0 -106 5 -158 11 -95 12 -95 12 -212 -25 -65 -20 -120 -41 -123 -45 -2 -5
-31 -19 -62 -32 -124 -49 -246 -149 -343 -279 -49 -65 -76 -112 -86 -150 -9
-30 -31 -100 -49 -155 -18 -55 -41 -140 -50 -190 -17 -90 -17 -90 10 -200 57
-238 98 -329 211 -477 47 -61 198 -198 218 -198 7 0 33 -14 58 -30 26 -17 68
-37 95 -45 62 -18 186 -61 243 -85 25 -10 89 -28 142 -39 54 -12 117 -30 140
-40 111 -51 225 -100 247 -106 34 -10 371 -194 396 -215 11 -10 37 -25 59 -34
21 -9 52 -27 70 -42 68 -56 200 -154 207 -154 4 0 45 -31 91 -70 45 -38 112
-94 147 -122 105 -86 293 -279 339 -350 9 -14 41 -54 70 -89 29 -35 67 -82 85
-104 30 -35 95 -127 149 -207 10 -16 28 -42 40 -60 55 -82 208 -364 239 -442
11 -27 29 -61 39 -76 11 -15 24 -48 30 -74 6 -26 21 -64 35 -84 14 -21 29 -60
34 -87 5 -28 22 -81 36 -119 77 -203 128 -458 171 -841 13 -119 15 -211 11
-445 -5 -307 -15 -427 -49 -595 -11 -55 -24 -127 -29 -160 -5 -33 -19 -98 -29
-145 -26 -111 -28 -341 -4 -398 9 -20 20 -65 25 -100 15 -106 75 -213 187
-338 54 -60 118 -124 143 -142 103 -76 155 -104 208 -113 30 -5 72 -20 93 -34
45 -30 215 -65 318 -66 77 0 233 36 273 64 15 10 49 25 76 32 71 18 239 133
304 207 104 118 149 190 171 274 9 33 24 81 35 105 23 51 54 191 125 554 29
151 37 218 46 410 6 132 17 254 25 286 22 83 21 421 -1 480 -10 26 -16 73 -16
114 1 198 -25 441 -73 690 -9 44 -20 107 -24 140 -5 33 -14 73 -21 90 -6 16
-18 61 -26 100 -8 38 -21 87 -29 108 -8 20 -24 80 -35 131 -22 98 -64 223
-106 311 -19 42 -24 68 -24 133 0 69 3 84 23 109 13 15 29 43 37 61 7 19 26
40 44 49 17 9 45 28 63 44 77 67 225 62 337 -12 109 -71 135 -124 254 -514 39
-127 112 -426 112 -459 0 -14 12 -60 26 -103 15 -47 29 -120 34 -183 5 -58 14
-139 19 -180 26 -199 43 -362 46 -430 14 -342 16 -565 6 -762 -10 -228 -14
-271 -52 -558 -11 -85 -19 -174 -19 -197 0 -23 -5 -54 -11 -70 -6 -15 -21 -80
-35 -143 -56 -273 -140 -585 -184 -690 -11 -25 -26 -74 -35 -110 -8 -36 -26
-90 -40 -120 -66 -149 -85 -201 -94 -259 -6 -37 -21 -79 -35 -100 -13 -20 -30
-56 -36 -81 -6 -25 -35 -90 -64 -145 -29 -55 -58 -117 -65 -138 -7 -20 -34
-71 -59 -113 -53 -85 -63 -102 -90 -159 -38 -80 -57 -111 -107 -180 -28 -38
-64 -93 -79 -121 -15 -28 -51 -78 -79 -111 -29 -33 -65 -79 -82 -102 -16 -24
-45 -63 -62 -87 -18 -24 -33 -49 -33 -54 0 -5 -21 -33 -48 -62 -26 -29 -58
-70 -71 -91 -12 -20 -31 -42 -42 -47 -10 -6 -28 -27 -38 -48 -11 -20 -40 -57
-66 -82 -26 -25 -55 -57 -64 -71 -17 -27 -221 -242 -256 -270 -11 -8 -41 -38
-67 -65 -86 -91 -252 -248 -331 -314 -43 -36 -117 -98 -163 -137 -47 -40 -89
-73 -94 -73 -4 0 -26 -15 -49 -32 -44 -36 -69 -55 -209 -156 -107 -78 -176
-122 -212 -138 -15 -6 -60 -35 -100 -64 -41 -29 -90 -59 -109 -67 -20 -9 -49
-25 -66 -37 -16 -11 -43 -28 -60 -38 -54 -30 -414 -208 -421 -208 -3 0 -18 -8
-32 -19 -15 -10 -44 -24 -65 -31 -21 -6 -89 -36 -150 -65 -62 -29 -152 -65
-201 -79 -49 -15 -105 -36 -125 -47 -20 -10 -45 -19 -56 -19 -11 0 -44 -11
-74 -25 -29 -14 -72 -28 -95 -31 -52 -7 -306 -79 -366 -104 -39 -16 -151 -41
-257 -57 -42 -7 -137 31 -180 70 -62 57 -102 129 -119 213 -16 74 -16 83 0
134 18 60 96 167 137 187 86 42 208 93 221 93 8 0 40 13 69 29 33 17 84 33
129 40 74 12 255 68 310 96 15 8 58 22 96 31 38 9 78 22 89 29 11 7 56 24 100
39 44 15 92 36 106 46 15 11 40 22 55 26 16 3 47 17 70 30 22 12 75 37 117 53
42 17 101 46 129 65 29 19 72 39 95 45 23 7 70 29 105 51 35 22 83 52 108 66
25 15 61 37 80 49 19 12 69 42 110 66 81 47 144 91 200 137 19 16 62 47 95 68
64 41 177 131 235 186 19 18 53 46 75 62 22 16 76 63 121 105 44 42 134 126
200 186 66 61 139 134 164 164 25 30 59 68 75 85 44 45 82 97 90 126 4 14 20
41 36 62 41 52 77 139 99 238 16 74 17 103 9 220 -10 155 -21 215 -48 267 -10
21 -40 81 -66 133 -42 84 -60 107 -151 195 -57 55 -120 114 -141 131 -55 44
-158 104 -179 104 -11 0 -43 12 -73 25 -74 35 -219 65 -311 65 -91 0 -259 -39
-344 -80 -34 -16 -72 -32 -85 -35 -13 -4 -48 -26 -76 -49 -29 -22 -78 -61
-109 -86 -32 -24 -67 -58 -79 -75 -43 -61 -276 -282 -389 -368 -24 -18 -80
-62 -126 -97 -46 -36 -101 -76 -122 -90 -21 -14 -68 -46 -103 -72 -35 -26 -88
-58 -118 -72 -30 -15 -74 -39 -99 -56 -25 -16 -101 -57 -170 -90 -69 -34 -145
-72 -170 -84 -25 -13 -62 -26 -82 -30 -20 -4 -56 -17 -80 -31 -38 -21 -89 -38
-333 -114 -65 -21 -152 -41 -285 -66 -47 -9 -114 -22 -149 -30 -123 -26 -335
-40 -631 -40 -344 0 -529 15 -690 55 -63 15 -159 36 -212 45 -54 9 -117 25
-140 35 -24 11 -53 20 -66 20 -13 0 -51 11 -85 24 -34 14 -109 40 -167 59 -58
19 -141 51 -185 72 -172 79 -271 129 -301 151 -17 12 -73 46 -125 74 -86 46
-183 111 -299 197 -24 18 -47 33 -52 33 -10 0 -103 76 -241 198 -48 42 -146
139 -218 214 -72 76 -156 157 -188 182 -55 42 -210 126 -232 126 -6 0 -34 11
-62 24 -63 30 -206 56 -302 56 -132 -1 -343 -68 -461 -147 -32 -21 -73 -49
-93 -62 -57 -37 -199 -181 -237 -239 -104 -161 -151 -335 -146 -548 3 -151 25
-241 85 -349 95 -172 107 -191 134 -217 15 -15 42 -41 58 -57 17 -16 40 -43
53 -60 13 -16 40 -40 61 -52 21 -11 45 -33 54 -47 37 -60 391 -376 569 -509
24 -18 80 -61 126 -95 46 -35 105 -74 131 -88 26 -14 62 -38 81 -53 18 -15 56
-40 84 -54 28 -14 65 -35 81 -47 17 -12 64 -41 105 -65 41 -24 92 -55 112 -67
21 -13 59 -32 85 -42 26 -10 79 -37 116 -60 38 -23 87 -47 110 -53 41 -10 148
-57 238 -105 26 -13 54 -24 63 -24 9 0 47 -15 84 -34 37 -18 92 -39 122 -46
30 -7 82 -26 115 -42 33 -15 66 -28 74 -28 8 0 47 -11 86 -25 39 -13 105 -29
146 -36 40 -6 87 -18 103 -26 16 -8 51 -22 80 -30 53 -16 170 -71 250 -118 37
-22 53 -40 83 -99 34 -67 36 -76 35 -158 -1 -78 -5 -94 -36 -156 -53 -105
-139 -164 -258 -176 -51 -6 -73 -4 -97 8 -16 9 -45 16 -64 16 -19 0 -55 11
-81 25 -26 14 -58 25 -72 25 -14 0 -80 18 -147 39 -67 22 -140 42 -162 46 -22
4 -60 16 -85 27 -25 11 -71 26 -103 34 -32 8 -77 24 -100 35 -23 12 -67 28
-97 35 -31 7 -82 27 -114 43 -32 17 -65 31 -75 31 -9 0 -38 14 -66 30 -27 16
-57 30 -65 30 -9 0 -119 52 -245 115 -245 123 -263 132 -341 183 -28 17 -56
32 -62 32 -6 0 -46 24 -89 53 -43 30 -94 62 -113 72 -19 9 -53 31 -75 47 -36
26 -128 88 -235 158 -50 33 -201 151 -267 209 -28 25 -75 64 -103 86 -160 123
-613 566 -701 686 -27 37 -55 69 -63 72 -13 5 -35 31 -141 171 -22 29 -56 71
-75 93 -31 36 -109 138 -150 197 -8 11 -40 53 -70 93 -60 77 -74 99 -197 303
-45 74 -91 149 -101 165 -24 37 -86 157 -151 290 -26 55 -55 114 -64 130 -50
95 -101 224 -111 280 -4 22 -14 54 -21 70 -7 17 -29 66 -49 110 -19 45 -42
109 -50 144 -8 34 -19 68 -25 74 -5 7 -19 44 -29 82 -11 39 -32 106 -45 150
-14 44 -35 116 -46 160 -30 124 -52 203 -77 290 -13 44 -26 109 -29 145 -3 36
-14 117 -25 180 -34 204 -50 326 -50 386 0 33 -9 96 -20 142 -19 77 -20 118
-20 556 0 405 2 480 16 517 8 24 19 96 24 159 9 115 32 283 50 364 5 23 14 92
20 153 5 61 17 131 26 155 8 23 24 81 35 128 11 47 26 102 34 123 8 21 26 85
40 143 14 58 29 113 34 123 6 10 19 49 29 87 25 88 84 225 112 261 12 15 46
49 75 75 47 43 60 49 125 59 90 14 173 -1 226 -40 93 -67 131 -110 153 -174
34 -95 35 -110 12 -153 -12 -21 -21 -45 -21 -52 0 -8 -14 -45 -31 -84 -17 -38
-39 -114 -50 -168 -10 -55 -28 -114 -39 -132 -11 -18 -20 -50 -20 -70 0 -21
-11 -66 -24 -100 -14 -35 -37 -128 -51 -208 -14 -80 -32 -174 -40 -210 -9 -36
-20 -132 -25 -215 -6 -82 -17 -179 -25 -215 -15 -63 -39 -431 -38 -555 4 -218
29 -523 52 -613 5 -20 12 -91 16 -157 3 -66 14 -158 24 -205 10 -47 24 -119
30 -160 7 -41 25 -115 41 -165 16 -49 34 -117 40 -150 7 -33 19 -73 27 -89 8
-16 23 -52 33 -80 16 -48 37 -81 134 -214 21 -29 59 -64 85 -79 25 -15 49 -33
54 -39 4 -7 24 -23 45 -35 20 -12 46 -30 57 -39 11 -10 38 -23 60 -30 22 -7
54 -20 70 -30 49 -29 229 -70 304 -70 83 0 252 33 302 60 20 10 68 28 107 40
39 11 84 31 99 43 15 13 51 37 78 54 53 34 123 102 197 194 66 81 177 313 189
393 5 35 13 76 19 90 21 56 8 188 -36 376 -46 194 -66 298 -78 420 -31 299
-39 429 -32 566 13 284 24 430 34 464 6 19 16 71 22 115 6 44 23 134 39 200
16 66 33 143 39 170 5 28 19 77 30 110 37 104 82 248 96 301 7 29 22 64 33 78
12 14 39 70 62 123 53 123 63 144 108 218 39 64 77 132 117 207 14 25 48 73
74 105 27 33 57 75 67 94 10 18 37 58 59 87 23 29 50 66 61 81 86 116 212 249
465 489 105 100 268 226 384 297 18 11 53 35 77 53 104 78 446 282 473 282 9
0 144 62 211 97 28 14 86 36 130 48 44 13 98 30 120 39 22 8 51 15 64 16 24 0
121 28 191 55 19 8 45 17 57 20 13 3 48 22 80 41 31 19 62 34 67 34 21 0 257
250 273 288 8 20 23 48 33 62 27 38 88 202 101 272 21 120 16 252 -14 368 -38
141 -69 225 -107 289 -33 56 -168 221 -181 221 -4 0 -38 27 -76 60 -37 33 -84
65 -103 71 -19 6 -51 21 -70 34 -19 13 -53 26 -75 30 -22 3 -69 18 -105 32
-60 24 -72 25 -160 18 -52 -4 -125 -8 -162 -10 -37 -2 -100 -10 -140 -19 -40
-9 -102 -23 -138 -31 -60 -12 -91 -22 -250 -75 -104 -35 -175 -64 -202 -82
-14 -10 -41 -21 -60 -25 -18 -3 -55 -17 -82 -31 -27 -13 -71 -31 -97 -38 -27
-8 -61 -25 -76 -38 -16 -13 -46 -29 -68 -35 -22 -6 -51 -18 -65 -28 -14 -10
-45 -28 -70 -41 -25 -13 -72 -39 -105 -58 -33 -19 -83 -45 -111 -58 -64 -30
-155 -89 -174 -110 -7 -10 -36 -28 -64 -41 -28 -14 -73 -42 -100 -63 -27 -20
-65 -48 -86 -62 -83 -56 -141 -97 -198 -142 -33 -26 -75 -54 -92 -63 -17 -9
-58 -40 -90 -68 -32 -29 -89 -79 -126 -112 -38 -33 -103 -92 -144 -132 -41
-40 -95 -89 -120 -109 -42 -34 -147 -147 -214 -230 -37 -45 -134 -111 -193
-131 -64 -22 -196 -13 -232 16 -14 12 -42 29 -61 40 -48 26 -63 44 -105 135
-33 68 -37 85 -32 130 9 87 51 175 120 251 68 74 325 328 396 391 24 21 73 67
107 102 34 34 67 62 73 62 6 0 46 30 90 68 44 37 94 76 110 87 17 11 90 65
163 121 73 56 147 108 164 117 17 9 37 23 44 32 8 9 31 25 53 36 21 11 74 47
119 80 44 32 84 59 88 59 9 0 83 43 165 96 28 18 61 35 75 39 14 4 36 15 50
25 14 9 50 29 80 43 30 14 66 32 80 41 39 22 175 86 186 86 9 0 94 39 204 95
36 18 89 38 118 44 29 6 69 19 90 30 20 10 61 26 91 35 30 9 62 23 71 31 9 8
39 19 66 24 28 5 74 19 104 31 30 12 93 30 139 42 47 11 98 26 114 34 15 9 64
21 107 29 43 8 93 21 110 30 17 9 88 24 158 35 70 10 163 27 207 38 44 11 125
25 180 31 55 6 120 17 145 25 45 14 195 30 430 44 154 10 590 6 845 -7z"/>
<path d="M9940 13414 c-90 -8 -239 -34 -281 -50 -24 -8 -83 -22 -130 -29 -47
-8 -101 -21 -120 -29 -19 -8 -75 -22 -125 -31 -49 -9 -104 -25 -121 -35 -18
-11 -51 -24 -74 -30 -23 -6 -58 -22 -78 -35 -20 -13 -55 -28 -78 -35 -59 -15
-155 -62 -192 -93 -17 -14 -47 -31 -68 -38 -21 -6 -50 -20 -64 -30 -15 -10
-37 -23 -50 -28 -37 -14 -316 -215 -394 -284 -202 -179 -438 -430 -487 -519
-9 -17 -32 -47 -50 -67 -52 -55 -143 -197 -228 -356 -19 -36 -54 -98 -76 -138
-23 -40 -47 -98 -54 -128 -8 -30 -24 -74 -36 -99 -12 -25 -27 -65 -34 -90 -7
-25 -21 -62 -31 -82 -26 -52 -89 -313 -99 -418 -5 -47 -17 -106 -25 -130 -9
-25 -18 -90 -21 -145 -2 -55 -10 -139 -16 -187 -14 -111 5 -417 33 -535 11
-46 24 -120 29 -165 10 -97 61 -307 95 -393 14 -33 33 -85 44 -115 70 -198 88
-239 188 -430 66 -126 175 -298 232 -366 14 -17 48 -60 76 -95 27 -35 60 -75
72 -88 13 -13 23 -28 23 -33 0 -6 69 -79 154 -162 154 -154 269 -256 287 -256
5 0 30 -19 55 -42 26 -24 75 -61 109 -83 35 -22 90 -58 122 -79 117 -80 396
-221 518 -261 44 -15 100 -37 125 -50 59 -30 234 -74 340 -86 52 -6 98 -18
119 -30 18 -11 66 -24 105 -29 40 -5 92 -13 116 -19 167 -36 565 -37 750 -1
52 10 117 21 145 25 27 4 66 15 87 26 20 10 83 25 140 33 57 8 123 22 147 31
25 8 70 22 102 30 31 8 83 29 114 45 31 17 63 30 70 30 7 0 42 13 77 30 34 16
71 30 81 30 21 0 154 67 183 92 12 11 57 37 100 59 43 22 97 54 119 70 22 17
60 43 85 59 25 16 74 52 110 80 36 27 85 65 110 82 116 84 490 484 540 578 7
13 37 57 67 97 30 41 61 90 70 111 8 20 30 57 47 82 98 136 216 392 273 590
13 47 31 100 39 118 8 18 27 95 43 170 16 75 35 151 41 167 7 17 16 86 20 155
5 69 16 159 26 200 19 87 22 343 4 400 -6 19 -17 105 -24 190 -10 117 -26 203
-61 350 -26 107 -55 218 -65 245 -10 28 -25 73 -35 100 -46 135 -57 162 -79
195 -13 19 -29 58 -36 85 -6 28 -25 70 -41 94 -16 25 -29 50 -29 57 0 7 -13
28 -28 46 -16 18 -46 67 -66 108 -21 41 -47 85 -59 98 -11 12 -30 38 -41 57
-50 83 -122 183 -155 216 -20 19 -58 62 -84 95 -80 98 -309 324 -357 352 -25
15 -72 49 -105 77 -92 77 -308 222 -400 269 -27 14 -81 44 -120 66 -38 22
-101 49 -140 61 -38 11 -80 27 -93 36 -50 31 -171 75 -257 93 -49 10 -111 28
-136 39 -25 11 -72 23 -105 26 -32 4 -90 17 -129 29 -38 13 -108 29 -155 36
-81 12 -602 22 -700 14z m631 -669 c156 -23 347 -64 449 -98 25 -8 72 -24 105
-35 150 -50 314 -121 389 -170 28 -18 54 -32 58 -32 5 0 31 -16 59 -35 28 -19
57 -35 64 -35 6 0 20 -10 31 -21 10 -12 51 -45 89 -74 80 -60 191 -171 230
-230 15 -22 43 -56 63 -75 21 -20 63 -68 96 -108 32 -40 62 -72 66 -72 9 0 80
-106 80 -118 0 -5 14 -27 31 -48 17 -22 41 -59 54 -84 13 -25 48 -94 79 -155
31 -60 56 -117 56 -126 0 -10 11 -31 25 -47 13 -16 29 -48 34 -71 5 -24 19
-53 30 -65 15 -16 24 -44 30 -92 5 -45 20 -93 40 -133 19 -36 45 -118 62 -190
29 -125 29 -128 29 -449 0 -324 0 -324 -30 -392 -16 -38 -30 -78 -30 -89 0
-11 -6 -38 -14 -58 -18 -47 -56 -196 -56 -220 0 -9 -9 -35 -19 -57 -23 -50
-86 -208 -111 -280 -10 -29 -36 -84 -58 -122 -144 -251 -178 -305 -233 -370
-34 -40 -75 -92 -90 -116 -77 -118 -128 -174 -243 -268 -37 -30 -93 -77 -124
-103 -50 -42 -281 -190 -375 -239 -61 -32 -162 -77 -207 -91 -25 -8 -70 -24
-100 -35 -104 -38 -229 -73 -295 -83 -37 -5 -74 -13 -83 -18 -40 -20 -341 -46
-542 -46 -169 0 -224 4 -315 22 -60 12 -148 27 -195 33 -96 12 -176 34 -300
80 -47 18 -105 39 -130 47 -25 8 -76 30 -115 49 -38 19 -75 34 -81 34 -5 0
-26 11 -45 26 -19 14 -53 34 -76 44 -24 10 -57 30 -75 43 -18 14 -55 36 -83
50 -27 14 -61 37 -75 52 -14 15 -41 35 -60 45 -40 21 -366 341 -418 410 -19
25 -51 63 -72 85 -21 22 -48 60 -60 84 -12 24 -42 72 -66 107 -24 35 -49 75
-54 90 -6 15 -19 38 -29 53 -24 34 -155 351 -176 427 -16 54 -37 141 -82 324
-43 180 -44 195 -40 515 4 309 4 310 35 430 17 66 38 149 45 185 25 113 66
243 101 315 61 127 84 180 92 209 6 27 47 99 90 161 11 17 26 44 33 62 7 17
23 41 37 54 13 12 24 28 24 36 0 31 294 348 455 490 143 127 176 153 218 174
23 12 67 37 97 56 101 64 173 103 199 109 14 4 46 19 71 34 25 15 59 31 76 34
16 4 52 18 79 31 26 14 57 25 68 25 10 0 53 14 95 30 42 17 109 35 149 40 40
5 109 19 154 30 116 30 203 37 460 39 154 1 258 -4 330 -14z"/>
</g>
</svg>
